<svg width="10" height="9" viewBox="0 0 10 9" fill="none" xmlns="http://www.w3.org/2000/svg">
<path d="M4.37526 7.79042C4.37526 7.73968 4.36409 7.68956 4.34255 7.64362C4.32102 7.59768 4.28964 7.55703 4.25065 7.52457C4.21166 7.4921 4.166 7.46861 4.11691 7.45576C4.06783 7.44291 4.01652 7.44101 3.96662 7.45019C3.51371 7.53331 2.94188 7.54581 2.78984 7.11875C2.65726 6.788 2.43766 6.49929 2.15432 6.28323C2.1341 6.27223 2.11483 6.25957 2.09671 6.24538C2.07192 6.17997 2.02787 6.12361 1.97039 6.08374C1.9129 6.04387 1.84468 6.02236 1.77473 6.02206H1.77304C1.68156 6.02202 1.5938 6.05823 1.52896 6.12276C1.46412 6.18728 1.42748 6.27487 1.42707 6.36634C1.42572 6.64846 1.70765 6.82921 1.82203 6.89037C1.9569 7.02588 2.0653 7.18538 2.14165 7.36067C2.26767 7.71475 2.63392 8.25196 3.6867 8.1827C3.68704 8.19487 3.68737 8.20635 3.68754 8.21682L3.68906 8.3094C3.68906 8.40116 3.72551 8.48916 3.7904 8.55404C3.85528 8.61892 3.94328 8.65537 4.03503 8.65537C4.12679 8.65537 4.21479 8.61892 4.27967 8.55404C4.34456 8.48916 4.38101 8.40116 4.38101 8.3094L4.37932 8.19926C4.37763 8.13369 4.37526 8.03875 4.37526 7.79042ZM8.06575 2.55724C8.07673 2.514 8.08755 2.46602 8.097 2.41196C8.15296 2.02641 8.10418 1.6329 7.95577 1.27268C7.93705 1.22572 7.90828 1.18342 7.87148 1.14875C7.83468 1.11408 7.79075 1.08788 7.74275 1.07199C7.61959 1.03043 7.16484 0.948667 6.29518 1.50445C5.57228 1.33434 4.81977 1.33434 4.09687 1.50445C3.23075 0.956807 2.77835 1.03112 2.65638 1.07031C2.60721 1.08556 2.56207 1.11163 2.52427 1.14659C2.48648 1.18155 2.45698 1.22452 2.43795 1.27236C2.28652 1.6395 2.23827 2.04103 2.29842 2.4336C2.30686 2.47786 2.31598 2.51874 2.32545 2.55624C2.03883 2.938 1.88617 3.40365 1.89112 3.881C1.89019 3.98751 1.8951 4.09398 1.90582 4.19994C2.02138 5.7923 3.05929 6.27037 3.78248 6.43458C3.76745 6.47783 3.75377 6.52411 3.7416 6.5731C3.71992 6.66212 3.73443 6.7561 3.78194 6.83444C3.82945 6.91278 3.90609 6.96908 3.99505 6.99099C4.08401 7.01291 4.17803 6.99865 4.25649 6.95135C4.33496 6.90404 4.39146 6.82756 4.41361 6.73865C4.43562 6.62338 4.49205 6.51748 4.57545 6.43492C4.62588 6.39077 4.66239 6.33291 4.68054 6.2684C4.69869 6.20388 4.6977 6.13548 4.67769 6.07151C4.65768 6.00754 4.61952 5.95077 4.56783 5.9081C4.51615 5.86543 4.45318 5.83869 4.38658 5.83115C3.19156 5.69466 2.67277 5.2078 2.59472 4.13643C2.58608 4.05157 2.58219 3.9663 2.58307 3.88101C2.57752 3.5408 2.68991 3.20916 2.90117 2.94242C2.92239 2.91461 2.945 2.88789 2.96891 2.86235C3.01126 2.81495 3.03974 2.7568 3.05122 2.69428C3.06269 2.63175 3.05672 2.56728 3.03395 2.50793C3.01061 2.44549 2.99264 2.38118 2.98023 2.31568C2.95204 2.12945 2.96129 1.93947 3.00742 1.75685C3.30812 1.84178 3.59112 1.98002 3.84295 2.16499C3.88459 2.19273 3.93171 2.21119 3.98112 2.21912C4.03052 2.22704 4.08105 2.22426 4.12929 2.21094C4.82853 2.02118 5.56574 2.0213 6.26492 2.21129C6.31342 2.22459 6.36422 2.22722 6.41382 2.21899C6.46343 2.21077 6.51066 2.19189 6.55227 2.16365C6.80292 1.97791 7.08474 1.83844 7.38443 1.7518C7.43036 1.93003 7.44064 2.11557 7.41467 2.29778C7.40214 2.36958 7.38256 2.43998 7.35622 2.50794C7.33345 2.56729 7.32748 2.63176 7.33895 2.69428C7.35043 2.7568 7.3789 2.81496 7.42126 2.86235C7.44795 2.89242 7.47465 2.92486 7.49863 2.95526C7.70839 3.21748 7.81889 3.54531 7.81066 3.881C7.81129 3.97082 7.80694 4.0606 7.79765 4.14994C7.72147 5.20711 7.20065 5.69432 6.00005 5.83115C5.93343 5.83874 5.87046 5.86551 5.81878 5.90823C5.7671 5.95094 5.72895 6.00775 5.70896 6.07175C5.68897 6.13574 5.68801 6.20417 5.70618 6.2687C5.72436 6.33324 5.7609 6.3911 5.81135 6.43525C5.89737 6.52002 5.95392 6.63016 5.97268 6.74946C5.99606 6.84208 6.0068 6.93743 6.00461 7.03293V7.84043C6.00123 8.06443 6.00123 8.23235 6.00123 8.30938C6.00123 8.40114 6.03768 8.48914 6.10256 8.55402C6.16744 8.6189 6.25544 8.65535 6.3472 8.65535C6.43896 8.65535 6.52695 8.6189 6.59184 8.55402C6.65672 8.48914 6.69317 8.40114 6.69317 8.30938C6.69317 8.23437 6.69317 8.06984 6.69655 7.84583V7.03293C6.69934 6.87995 6.68132 6.72731 6.643 6.57918C6.63204 6.53055 6.61862 6.48252 6.60279 6.43525C7.1291 6.34782 7.60731 6.07646 7.9523 5.66948C8.29728 5.2625 8.48666 4.74631 8.48672 4.21279C8.49812 4.10257 8.50342 3.99181 8.5026 3.881C8.51028 3.40314 8.35635 2.93668 8.06575 2.55725L8.06575 2.55724Z" fill="#8C072B"/>
</svg>
