<svg width="9" height="9" viewBox="0 0 9 9" fill="none" xmlns="http://www.w3.org/2000/svg">
<g clip-path="url(#clip0_1_541)">
<path d="M4.66846 3.11884C4.32633 3.11884 3.99188 3.22029 3.7074 3.41037C3.42293 3.60045 3.20121 3.87062 3.07028 4.18671C2.93935 4.5028 2.90509 4.85062 2.97184 5.18618C3.03859 5.52174 3.20334 5.82997 3.44527 6.0719C3.68719 6.31382 3.99542 6.47858 4.33098 6.54532C4.66654 6.61207 5.01436 6.57781 5.33045 6.44688C5.64654 6.31595 5.91671 6.09423 6.10679 5.80976C6.29687 5.52528 6.39832 5.19083 6.39832 4.8487C6.39832 4.38991 6.21607 3.94991 5.89166 3.6255C5.56725 3.30109 5.12725 3.11884 4.66846 3.11884ZM4.66846 5.88662C4.46318 5.88662 4.26251 5.82574 4.09183 5.7117C3.92114 5.59765 3.78811 5.43555 3.70955 5.24589C3.631 5.05624 3.61044 4.84755 3.65049 4.64621C3.69054 4.44488 3.78939 4.25994 3.93454 4.11478C4.0797 3.96963 4.26464 3.87077 4.46598 3.83073C4.66731 3.79068 4.876 3.81123 5.06566 3.88979C5.25531 3.96835 5.41741 4.10138 5.53146 4.27206C5.64551 4.44275 5.70638 4.64342 5.70638 4.8487C5.70638 5.12397 5.59703 5.38797 5.40238 5.58262C5.20773 5.77727 4.94374 5.88662 4.66846 5.88662ZM6.39832 2.77287C6.3299 2.77287 6.26301 2.79316 6.20611 2.83117C6.14922 2.86919 6.10487 2.92322 6.07869 2.98644C6.0525 3.04966 6.04565 3.11922 6.059 3.18633C6.07235 3.25345 6.1053 3.31509 6.15368 3.36348C6.20207 3.41186 6.26372 3.44481 6.33083 3.45816C6.39794 3.47151 6.4675 3.46466 6.53072 3.43848C6.59394 3.41229 6.64797 3.36795 6.68599 3.31105C6.72401 3.25416 6.7443 3.18727 6.7443 3.11884C6.7443 3.02708 6.70785 2.93908 6.64296 2.8742C6.57808 2.80932 6.49008 2.77287 6.39832 2.77287ZM8.10743 3.54784C8.1017 3.25218 8.04553 2.95967 7.94136 2.68291C7.84476 2.43107 7.69627 2.20235 7.50554 2.01162C7.31481 1.82089 7.08609 1.6724 6.83425 1.5758C6.55749 1.47163 6.26498 1.41547 5.96932 1.40974C5.63373 1.38898 5.52301 1.38898 4.66846 1.38898C3.81391 1.38898 3.7032 1.38898 3.36761 1.40974C3.07195 1.41547 2.77944 1.47163 2.50268 1.5758C2.25083 1.6724 2.02212 1.82089 1.83139 2.01162C1.64065 2.20235 1.49217 2.43107 1.39557 2.68291C1.29139 2.95967 1.23523 3.25218 1.2295 3.54784C1.20874 3.8869 1.20874 3.99761 1.20874 4.8487C1.20874 5.69979 1.20874 5.8105 1.2295 6.14956C1.23523 6.44522 1.29139 6.73773 1.39557 7.01449C1.49217 7.26633 1.64065 7.49504 1.83139 7.68578C2.02212 7.87651 2.25083 8.025 2.50268 8.1216C2.77944 8.22577 3.07195 8.28193 3.36761 8.28766C3.71358 8.28766 3.81391 8.30842 4.66846 8.30842C5.52301 8.30842 5.63373 8.30842 5.96932 8.28766C6.26498 8.28193 6.55749 8.22577 6.83425 8.1216C7.08609 8.025 7.31481 7.87651 7.50554 7.68578C7.69627 7.49504 7.84476 7.26633 7.94136 7.01449C8.04553 6.73773 8.1017 6.44522 8.10743 6.14956C8.10743 5.80358 8.12819 5.69979 8.12819 4.8487C8.12819 3.99761 8.12819 3.8869 8.10743 3.54784ZM7.41548 6.11842C7.40942 6.33798 7.36855 6.55518 7.29439 6.76193C7.23308 6.92534 7.13617 7.07307 7.0107 7.19439C6.8901 7.31993 6.74208 7.41584 6.57823 7.47463C6.371 7.55182 6.15234 7.59391 5.93126 7.59918C5.60605 7.59918 5.50572 7.61648 4.665 7.61648C3.82429 7.61648 3.72742 7.61648 3.4022 7.61648C3.18148 7.61078 2.96308 7.5699 2.75524 7.49539C2.59182 7.43408 2.44409 7.33717 2.32277 7.21169C2.19724 7.09109 2.10132 6.94307 2.04253 6.77922C1.96566 6.5731 1.92357 6.35564 1.91798 6.13572C1.91798 5.78974 1.91798 5.70325 1.91798 4.866C1.91798 4.02875 1.91798 3.92841 1.91798 3.59628C1.92395 3.37528 1.96602 3.15673 2.04253 2.94931C2.10223 2.78692 2.19806 2.64023 2.32277 2.52031C2.44337 2.39477 2.59139 2.29886 2.75524 2.24007C2.96247 2.16288 3.18112 2.12079 3.4022 2.11552C3.72742 2.08092 3.82775 2.08092 4.66846 2.08092C5.50918 2.08092 5.60951 2.08092 5.93472 2.08092C6.15689 2.08657 6.37662 2.12865 6.58515 2.20547C6.74754 2.26517 6.89423 2.361 7.01416 2.48571C7.13969 2.60631 7.23561 2.75432 7.29439 2.91817C7.37909 3.12872 7.42706 3.35223 7.43624 3.57898C7.43624 3.92495 7.45354 4.01145 7.45354 4.8487C7.45354 5.68595 7.43624 5.78628 7.43624 6.11842H7.41548Z" fill="#8C072B"/>
</g>
<defs>
<clipPath id="clip0_1_541">
<rect width="8.30334" height="8.30334" fill="white" transform="translate(0.516693 0.697021)"/>
</clipPath>
</defs>
</svg>
