<svg xmlns="http://www.w3.org/2000/svg" x="0px" y="0px"
width="100" height="100"
viewBox="0,0,256,256"
style="fill:#000000;">
<g fill="#8C072B" fill-rule="nonzero" stroke="none" stroke-width="1" stroke-linecap="butt" stroke-linejoin="miter" stroke-miterlimit="10" stroke-dasharray="" stroke-dashoffset="0" font-family="none" font-weight="none" font-size="none" text-anchor="none" style="mix-blend-mode: normal"><g transform="scale(8.53333,8.53333)"><path d="M6,4c-1.105,0 -2,0.895 -2,2v18c0,1.105 0.895,2 2,2h18c1.105,0 2,-0.895 2,-2v-18c0,-1.105 -0.895,-2 -2,-2zM17.5,11h2.55664c0.276,0 0.5,0.224 0.5,0.5c0,0.276 -0.224,0.5 -0.5,0.5h-2.55664c-0.276,0 -0.5,-0.224 -0.5,-0.5c0,-0.276 0.224,-0.5 0.5,-0.5zM8.91992,11.38477h2.78516c1.644,0 2.625,0.80428 2.625,2.11328c0,0.898 -0.6642,1.68155 -1.5332,1.81055v0.10547c1.122,0.082 1.9375,0.92753 1.9375,2.01953c0.001,1.485 -1.12069,2.42578 -2.92969,2.42578h-2.88477c-0.508,0 -0.91992,-0.41192 -0.91992,-0.91992v-6.63476c0,-0.508 0.41192,-0.91992 0.91992,-0.91992zM9.77344,12.74023v2.15625h1.33203c0.958,0.001 1.48047,-0.39322 1.48047,-1.07422c0,-0.675 -0.48603,-1.08203 -1.33203,-1.08203zM18.96289,13.24023c1.909,0 3.03516,1.21649 3.03516,3.27149v0.52148h-4.44336v0.08789c0.023,0.963 0.58747,1.5625 1.48047,1.5625c0.675,0 1.13831,-0.23997 1.32031,-0.66797h1.5918c-0.258,1.222 -1.37494,1.98438 -2.96094,1.98438c-1.973,0 -3.13476,-1.24566 -3.13477,-3.34766c0,-2.108 1.18533,-3.41211 3.11133,-3.41211zM18.9707,14.55078c-0.793,0 -1.35216,0.55063 -1.41016,1.39063h2.75977c-0.036,-0.857 -0.55161,-1.39062 -1.34961,-1.39062zM9.77344,16.0957v2.4082h1.58008c1.022,0 1.57422,-0.43066 1.57422,-1.22266c0,-0.776 -0.57023,-1.18555 -1.61523,-1.18555z"></path></g></g>
</svg>