<svg width="9" height="9" viewBox="0 0 9 9" fill="none" xmlns="http://www.w3.org/2000/svg">
<g clip-path="url(#clip0_1_547)">
<path d="M6.69461 3.81037C6.38488 3.81024 6.07994 3.88685 5.80705 4.03336C5.78214 3.96777 5.73788 3.91131 5.68012 3.87148C5.62237 3.83165 5.55387 3.81034 5.48371 3.81037H4.09982C4.05438 3.81034 4.00938 3.81927 3.96739 3.83665C3.92541 3.85403 3.88726 3.87951 3.85512 3.91164C3.82299 3.94378 3.79751 3.98193 3.78013 4.02391C3.76275 4.0659 3.75382 4.1109 3.75385 4.15634V8.30801C3.75382 8.35345 3.76275 8.39845 3.78013 8.44044C3.79751 8.48242 3.82299 8.52057 3.85512 8.55271C3.88725 8.58484 3.9254 8.61032 3.96739 8.6277C4.00938 8.64508 4.05438 8.65401 4.09982 8.65398H5.48371C5.52915 8.65401 5.57415 8.64508 5.61614 8.6277C5.65813 8.61032 5.69628 8.58484 5.72841 8.55271C5.76054 8.52057 5.78602 8.48242 5.8034 8.44044C5.82078 8.39845 5.82971 8.35345 5.82968 8.30801V6.40516C5.82968 6.3134 5.86613 6.2254 5.93102 6.16052C5.9959 6.09564 6.0839 6.05919 6.17565 6.05919C6.26741 6.05919 6.35541 6.09564 6.42029 6.16052C6.48518 6.2254 6.52163 6.3134 6.52163 6.40516V8.30801C6.5216 8.35345 6.53053 8.39845 6.54791 8.44044C6.56529 8.48242 6.59077 8.52057 6.6229 8.55271C6.65503 8.58484 6.69318 8.61032 6.73517 8.6277C6.77716 8.64508 6.82216 8.65401 6.8676 8.65398H8.25149C8.29693 8.65401 8.34193 8.64508 8.38392 8.6277C8.4259 8.61032 8.46406 8.58484 8.49619 8.55271C8.52832 8.52057 8.5538 8.48242 8.57118 8.44044C8.58856 8.39845 8.59749 8.35345 8.59746 8.30801V5.71322C8.59683 5.20874 8.39615 4.72511 8.03944 4.36839C7.68272 4.01167 7.19909 3.811 6.69461 3.81037ZM7.90552 7.96204H7.21357V6.40516C7.21357 6.12989 7.10422 5.86589 6.90957 5.67124C6.71493 5.4766 6.45093 5.36724 6.17565 5.36724C5.90038 5.36724 5.63638 5.4766 5.44174 5.67124C5.24709 5.86589 5.13774 6.12989 5.13774 6.40516V7.96204H4.44579V4.50231H5.13774V4.74558C5.13778 4.81726 5.16008 4.88717 5.20155 4.94564C5.24303 5.00411 5.30163 5.04826 5.36927 5.07199C5.43692 5.09572 5.51026 5.09787 5.57917 5.07813C5.64809 5.0584 5.70918 5.01775 5.754 4.96181C5.90926 4.76462 6.12223 4.62083 6.36317 4.55053C6.6041 4.48023 6.86098 4.48692 7.09792 4.56968C7.33487 4.65243 7.54006 4.80711 7.68484 5.01212C7.82963 5.21713 7.90677 5.46224 7.90552 5.71322V7.96204ZM3.0619 3.81037H1.67801C1.63257 3.81034 1.58757 3.81927 1.54559 3.83665C1.5036 3.85403 1.46545 3.87951 1.43332 3.91164C1.40119 3.94378 1.3757 3.98193 1.35833 4.02391C1.34095 4.0659 1.33202 4.1109 1.33204 4.15634V8.30801C1.33202 8.35345 1.34095 8.39845 1.35832 8.44044C1.3757 8.48242 1.40119 8.52057 1.43332 8.55271C1.46545 8.58484 1.5036 8.61032 1.54559 8.6277C1.58757 8.64508 1.63257 8.65401 1.67801 8.65398H3.0619C3.10735 8.65401 3.15235 8.64508 3.19433 8.6277C3.23632 8.61032 3.27447 8.58484 3.3066 8.55271C3.33873 8.52057 3.36422 8.48242 3.38159 8.44044C3.39897 8.39845 3.4079 8.35345 3.40788 8.30801V4.15634C3.4079 4.1109 3.39897 4.0659 3.38159 4.02391C3.36422 3.98193 3.33873 3.94378 3.3066 3.91164C3.27447 3.87951 3.23632 3.85403 3.19433 3.83665C3.15235 3.81927 3.10735 3.81034 3.0619 3.81037ZM2.71593 7.96204H2.02399V4.50231H2.71593V7.96204ZM2.37503 1.23045C2.22362 1.22139 2.07194 1.24322 1.92923 1.29461C1.78652 1.34601 1.65576 1.42589 1.54489 1.52941C1.43402 1.63292 1.34537 1.75791 1.28432 1.89676C1.22327 2.03561 1.1911 2.18544 1.18977 2.33711C1.18844 2.48879 1.21797 2.63915 1.27658 2.77905C1.33518 2.91896 1.42163 3.04548 1.53066 3.15092C1.6397 3.25637 1.76904 3.33854 1.91083 3.39243C2.05262 3.44631 2.20388 3.4708 2.35543 3.4644H2.36523C2.51704 3.47341 2.66909 3.45138 2.8121 3.39965C2.95511 3.34791 3.08607 3.26756 3.19698 3.16351C3.30789 3.05945 3.39641 2.93387 3.45715 2.79445C3.51788 2.65502 3.54955 2.50468 3.55022 2.3526C3.55088 2.20052 3.52053 2.04991 3.46102 1.90995C3.40152 1.77 3.3141 1.64365 3.20411 1.53863C3.09412 1.4336 2.96387 1.35211 2.82132 1.29912C2.67877 1.24613 2.52691 1.22277 2.37502 1.23045H2.37503ZM2.36523 2.77245H2.35543C2.2956 2.77972 2.23491 2.77411 2.17742 2.75599C2.11994 2.73788 2.06699 2.70769 2.02213 2.66744C1.97728 2.62719 1.94154 2.57781 1.91733 2.52262C1.89312 2.46742 1.88098 2.40769 1.88175 2.34743C1.88175 2.0893 2.07534 1.92239 2.37503 1.92239C2.43547 1.91434 2.49693 1.91933 2.55528 1.93702C2.61364 1.95472 2.66752 1.98472 2.7133 2.02499C2.75908 2.06527 2.7957 2.11489 2.82069 2.17051C2.84568 2.22612 2.85846 2.28645 2.85817 2.34743C2.85817 2.60555 2.66458 2.77245 2.36523 2.77245Z" fill="#8C072B"/>
</g>
<defs>
<clipPath id="clip0_1_547">
<rect width="8.30334" height="8.30334" fill="white" transform="translate(0.640045 0.69696)"/>
</clipPath>
</defs>
</svg>
