<svg width="640" height="853" viewBox="0 0 640 853" fill="none" xmlns="http://www.w3.org/2000/svg">
<rect width="640" height="853" fill="#0D0D0C"/>
<path d="M230.811 445H211.611C210.931 445 210.591 444.66 210.591 443.98V407.44C210.591 406.76 210.931 406.42 211.611 406.42H230.811C231.451 406.42 231.771 406.76 231.771 407.44V410.5C231.771 411.18 231.451 411.52 230.811 411.52H217.131C216.651 411.52 216.411 411.72 216.411 412.12V422.26C216.411 422.66 216.651 422.86 217.131 422.86H228.711C229.431 422.86 229.791 423.2 229.791 423.88V426.94C229.791 427.62 229.431 427.96 228.711 427.96H217.131C216.651 427.96 216.411 428.16 216.411 428.56V439.24C216.411 439.68 216.651 439.9 217.131 439.9H230.811C231.451 439.9 231.771 440.24 231.771 440.92V443.98C231.771 444.66 231.451 445 230.811 445ZM243.619 445H239.839C239.159 445 238.819 444.66 238.819 443.98V415.42C238.819 414.74 239.159 414.4 239.839 414.4H243.619C244.299 414.4 244.639 414.74 244.639 415.42V417.58H244.879C246.039 415.46 248.159 414.4 251.239 414.4H253.219C256.699 414.4 259.179 415.72 260.659 418.36C261.299 417.08 262.279 416.1 263.599 415.42C264.919 414.74 266.339 414.4 267.859 414.4H269.779C272.699 414.4 274.919 415.22 276.439 416.86C277.999 418.46 278.779 420.74 278.779 423.7V443.98C278.779 444.66 278.439 445 277.759 445H273.919C273.239 445 272.899 444.66 272.899 443.98V423.94C272.899 420.98 271.459 419.5 268.579 419.5H266.839C263.519 419.5 261.859 421.24 261.859 424.72V443.98C261.859 444.66 261.499 445 260.779 445H256.999C256.319 445 255.979 444.66 255.979 443.98V423.94C255.979 420.98 254.539 419.5 251.659 419.5H249.559C246.279 419.5 244.639 421.2 244.639 424.6V443.98C244.639 444.66 244.299 445 243.619 445ZM306.823 439.9H314.263C317.143 439.9 318.583 438.42 318.583 435.46V423.7C318.583 420.74 317.143 419.26 314.263 419.26H311.083C307.803 419.26 306.163 420.94 306.163 424.3V439.24C306.163 439.68 306.383 439.9 306.823 439.9ZM300.343 443.98V403.84C300.343 403.16 300.683 402.82 301.363 402.82H305.143C305.823 402.82 306.163 403.16 306.163 403.84V417.4H306.403C307.403 415.24 309.423 414.16 312.463 414.16H315.103C318.063 414.16 320.363 414.98 322.003 416.62C323.643 418.22 324.463 420.48 324.463 423.4V435.7C324.463 438.62 323.643 440.9 322.003 442.54C320.363 444.18 318.063 445 315.103 445H301.363C300.683 445 300.343 444.66 300.343 443.98ZM336.197 445H332.417C331.737 445 331.397 444.66 331.397 443.98V415.42C331.397 414.74 331.737 414.4 332.417 414.4H336.197C336.877 414.4 337.217 414.74 337.217 415.42V417.7H337.457C337.857 416.7 338.617 415.9 339.737 415.3C340.897 414.7 342.177 414.4 343.577 414.4H345.797C346.477 414.4 346.817 414.74 346.817 415.42V418.54C346.817 419.3 346.477 419.62 345.797 419.5H342.197C338.877 419.5 337.217 421.32 337.217 424.96V443.98C337.217 444.66 336.877 445 336.197 445ZM373.155 445H360.195C357.235 445 354.935 444.18 353.295 442.54C351.695 440.9 350.895 438.62 350.895 435.7V423.7C350.895 420.74 351.695 418.46 353.295 416.86C354.935 415.22 357.235 414.4 360.195 414.4H365.115C368.075 414.4 370.375 415.22 372.015 416.86C373.655 418.46 374.475 420.74 374.475 423.7V431.32C374.475 432.04 374.115 432.4 373.395 432.4H357.315C356.875 432.4 356.655 432.6 356.655 433V435.58C356.655 438.5 358.115 439.96 361.035 439.96H373.155C373.875 439.96 374.235 440.32 374.235 441.04V444.04C374.235 444.68 373.875 445 373.155 445ZM357.315 428.32H368.055C368.455 428.32 368.655 428.12 368.655 427.72V423.88C368.655 422.36 368.315 421.26 367.635 420.58C366.955 419.86 365.855 419.5 364.335 419.5H361.035C359.515 419.5 358.415 419.86 357.735 420.58C357.055 421.26 356.715 422.36 356.715 423.88V427.72C356.715 428.12 356.915 428.32 357.315 428.32ZM379.165 414.4H383.185C383.825 414.4 384.205 414.74 384.325 415.42L390.565 439.54H390.985L397.105 415.42C397.265 414.74 397.685 414.4 398.365 414.4H402.325C403.045 414.4 403.285 414.74 403.045 415.42L394.945 443.92C394.785 444.64 394.345 445 393.625 445H387.865C387.145 445 386.705 444.64 386.545 443.92L378.445 415.42C378.285 414.74 378.525 414.4 379.165 414.4ZM429.639 445H416.679C413.719 445 411.419 444.18 409.779 442.54C408.179 440.9 407.379 438.62 407.379 435.7V423.7C407.379 420.74 408.179 418.46 409.779 416.86C411.419 415.22 413.719 414.4 416.679 414.4H421.599C424.559 414.4 426.859 415.22 428.499 416.86C430.139 418.46 430.959 420.74 430.959 423.7V431.32C430.959 432.04 430.599 432.4 429.879 432.4H413.799C413.359 432.4 413.139 432.6 413.139 433V435.58C413.139 438.5 414.599 439.96 417.519 439.96H429.639C430.359 439.96 430.719 440.32 430.719 441.04V444.04C430.719 444.68 430.359 445 429.639 445ZM413.799 428.32H424.539C424.939 428.32 425.139 428.12 425.139 427.72V423.88C425.139 422.36 424.799 421.26 424.119 420.58C423.439 419.86 422.339 419.5 420.819 419.5H417.519C415.999 419.5 414.899 419.86 414.219 420.58C413.539 421.26 413.199 422.36 413.199 423.88V427.72C413.199 428.12 413.399 428.32 413.799 428.32Z" fill="#F2F2F2"/>
<path d="M188.479 543H187.219C186.958 543 186.827 542.869 186.827 542.608V525.388C186.827 525.127 186.958 524.996 187.219 524.996H193.771C195.059 524.996 196.067 525.369 196.795 526.116C197.523 526.844 197.887 527.852 197.887 529.14V532.248C197.887 533.555 197.523 534.572 196.795 535.3C196.067 536.028 195.059 536.392 193.771 536.392H189.151C188.965 536.392 188.871 536.476 188.871 536.644V542.608C188.871 542.869 188.741 543 188.479 543ZM189.151 534.572H193.491C195.059 534.572 195.843 533.769 195.843 532.164V529.224C195.843 527.6 195.059 526.788 193.491 526.788H189.151C188.965 526.788 188.871 526.872 188.871 527.04V534.32C188.871 534.488 188.965 534.572 189.151 534.572ZM202.938 543H201.678C201.416 543 201.286 542.869 201.286 542.608V529.112C201.286 528.851 201.416 528.72 201.678 528.72H202.938C203.199 528.72 203.33 528.851 203.33 529.112V530.232H203.442C203.628 529.821 203.983 529.467 204.506 529.168C205.028 528.869 205.644 528.72 206.354 528.72H207.446C207.688 528.72 207.81 528.851 207.81 529.112V530.148C207.81 530.279 207.782 530.381 207.726 530.456C207.67 530.512 207.576 530.531 207.446 530.512H205.934C205.094 530.512 204.45 530.764 204.002 531.268C203.554 531.772 203.33 532.463 203.33 533.34V542.608C203.33 542.869 203.199 543 202.938 543ZM216.608 543H214.2C212.912 543 211.895 542.636 211.148 541.908C210.42 541.18 210.056 540.163 210.056 538.856V532.864C210.056 531.557 210.42 530.54 211.148 529.812C211.895 529.084 212.912 528.72 214.2 528.72H216.608C217.896 528.72 218.904 529.084 219.632 529.812C220.379 530.54 220.752 531.557 220.752 532.864V538.856C220.752 540.163 220.379 541.18 219.632 541.908C218.904 542.636 217.896 543 216.608 543ZM214.424 541.208H216.384C217.952 541.208 218.736 540.405 218.736 538.8V532.92C218.736 531.315 217.952 530.512 216.384 530.512H214.424C212.856 530.512 212.072 531.315 212.072 532.92V538.8C212.072 540.405 212.856 541.208 214.424 541.208ZM224.476 526.368V523.736C224.476 523.475 224.598 523.344 224.84 523.344H226.128C226.39 523.344 226.52 523.475 226.52 523.736V526.368C226.52 526.629 226.39 526.76 226.128 526.76H224.84C224.598 526.76 224.476 526.629 224.476 526.368ZM222.376 547.144H221.228C220.967 547.144 220.836 547.013 220.836 546.752V545.716C220.836 545.455 220.967 545.324 221.228 545.324H221.872C223.608 545.324 224.476 544.447 224.476 542.692V529.112C224.476 528.851 224.607 528.72 224.868 528.72H226.128C226.39 528.72 226.52 528.851 226.52 529.112V542.972C226.52 544.26 226.147 545.277 225.4 546.024C224.672 546.771 223.664 547.144 222.376 547.144ZM240.316 543H234.38C233.092 543 232.075 542.636 231.328 541.908C230.6 541.18 230.236 540.163 230.236 538.856V532.864C230.236 531.557 230.6 530.54 231.328 529.812C232.075 529.084 233.092 528.72 234.38 528.72H236.732C238.02 528.72 239.028 529.084 239.756 529.812C240.484 530.54 240.848 531.557 240.848 532.864V536.42C240.848 536.7 240.717 536.84 240.456 536.84H232.532C232.345 536.84 232.252 536.924 232.252 537.092V538.8C232.252 540.424 233.036 541.236 234.604 541.236H240.316C240.577 541.236 240.708 541.367 240.708 541.628V542.636C240.708 542.879 240.577 543 240.316 543ZM232.532 535.356H238.58C238.767 535.356 238.86 535.263 238.86 535.076V532.92C238.86 531.315 238.076 530.512 236.508 530.512H234.604C233.036 530.512 232.252 531.315 232.252 532.92V535.076C232.252 535.263 232.345 535.356 232.532 535.356ZM244.829 530.512H243.289C243.028 530.512 242.897 530.391 242.897 530.148V529.112C242.897 528.851 243.028 528.72 243.289 528.72H244.829C245.016 528.72 245.109 528.636 245.109 528.468V526.06C245.109 525.799 245.24 525.668 245.501 525.668H246.761C247.004 525.668 247.125 525.799 247.125 526.06V528.468C247.125 528.636 247.228 528.72 247.433 528.72H250.401C250.681 528.72 250.821 528.851 250.821 529.112V530.148C250.821 530.391 250.681 530.512 250.401 530.512H247.433C247.228 530.512 247.125 530.596 247.125 530.764V538.828C247.125 540.415 247.947 541.208 249.589 541.208H250.681C250.961 541.208 251.101 541.339 251.101 541.6V542.636C251.101 542.879 250.961 543 250.681 543H249.337C248.049 543 247.023 542.645 246.257 541.936C245.492 541.208 245.109 540.2 245.109 538.912V530.764C245.109 530.596 245.016 530.512 244.829 530.512ZM260.331 543H257.923C256.635 543 255.618 542.636 254.871 541.908C254.143 541.18 253.779 540.163 253.779 538.856V532.864C253.779 531.557 254.143 530.54 254.871 529.812C255.618 529.084 256.635 528.72 257.923 528.72H260.331C261.619 528.72 262.627 529.084 263.355 529.812C264.102 530.54 264.475 531.557 264.475 532.864V538.856C264.475 540.163 264.102 541.18 263.355 541.908C262.627 542.636 261.619 543 260.331 543ZM258.147 541.208H260.107C261.675 541.208 262.459 540.405 262.459 538.8V532.92C262.459 531.315 261.675 530.512 260.107 530.512H258.147C256.579 530.512 255.795 531.315 255.795 532.92V538.8C255.795 540.405 256.579 541.208 258.147 541.208ZM284.968 543H279.032C277.744 543 276.727 542.636 275.98 541.908C275.252 541.18 274.888 540.163 274.888 538.856V532.864C274.888 531.557 275.252 530.54 275.98 529.812C276.727 529.084 277.744 528.72 279.032 528.72H281.384C282.672 528.72 283.68 529.084 284.408 529.812C285.136 530.54 285.5 531.557 285.5 532.864V536.42C285.5 536.7 285.37 536.84 285.108 536.84H277.184C276.998 536.84 276.904 536.924 276.904 537.092V538.8C276.904 540.424 277.688 541.236 279.256 541.236H284.968C285.23 541.236 285.36 541.367 285.36 541.628V542.636C285.36 542.879 285.23 543 284.968 543ZM277.184 535.356H283.232C283.419 535.356 283.512 535.263 283.512 535.076V532.92C283.512 531.315 282.728 530.512 281.16 530.512H279.256C277.688 530.512 276.904 531.315 276.904 532.92V535.076C276.904 535.263 276.998 535.356 277.184 535.356ZM290.602 543H289.342C289.08 543 288.95 542.869 288.95 542.608V529.112C288.95 528.851 289.08 528.72 289.342 528.72H290.602C290.863 528.72 290.994 528.851 290.994 529.112V530.204H291.106C291.628 529.215 292.618 528.72 294.074 528.72H295.11C296.752 528.72 297.891 529.355 298.526 530.624C298.824 530.008 299.291 529.541 299.926 529.224C300.579 528.888 301.26 528.72 301.97 528.72H302.95C304.219 528.72 305.208 529.084 305.918 529.812C306.627 530.54 306.982 531.557 306.982 532.864V542.608C306.982 542.869 306.851 543 306.59 543H305.33C305.068 543 304.938 542.869 304.938 542.608V532.948C304.938 531.324 304.154 530.512 302.586 530.512H301.662C300.822 530.512 300.168 530.755 299.702 531.24C299.254 531.707 299.03 532.351 299.03 533.172V542.608C299.03 542.869 298.899 543 298.638 543H297.378C297.116 543 296.986 542.869 296.986 542.608V532.948C296.986 531.324 296.202 530.512 294.634 530.512H293.598C292.758 530.512 292.114 530.736 291.666 531.184C291.218 531.632 290.994 532.267 290.994 533.088V542.608C290.994 542.869 290.863 543 290.602 543ZM326.141 541.6V542.636C326.141 542.879 326.01 543 325.749 543H321.689C320.401 543 319.383 542.636 318.637 541.908C317.909 541.18 317.545 540.163 317.545 538.856V532.864C317.545 531.557 317.909 530.54 318.637 529.812C319.383 529.084 320.401 528.72 321.689 528.72H325.749C326.01 528.72 326.141 528.851 326.141 529.112V530.148C326.141 530.391 326.01 530.512 325.749 530.512H321.913C320.363 530.512 319.589 531.324 319.589 532.948V538.772C319.589 540.396 320.363 541.208 321.913 541.208H325.749C326.01 541.208 326.141 541.339 326.141 541.6ZM335.28 543H332.872C331.584 543 330.567 542.636 329.82 541.908C329.092 541.18 328.728 540.163 328.728 538.856V532.864C328.728 531.557 329.092 530.54 329.82 529.812C330.567 529.084 331.584 528.72 332.872 528.72H335.28C336.568 528.72 337.576 529.084 338.304 529.812C339.051 530.54 339.424 531.557 339.424 532.864V538.856C339.424 540.163 339.051 541.18 338.304 541.908C337.576 542.636 336.568 543 335.28 543ZM333.096 541.208H335.056C336.624 541.208 337.408 540.405 337.408 538.8V532.92C337.408 531.315 336.624 530.512 335.056 530.512H333.096C331.528 530.512 330.744 531.315 330.744 532.92V538.8C330.744 540.405 331.528 541.208 333.096 541.208ZM344.66 543H343.4C343.139 543 343.008 542.869 343.008 542.608V529.112C343.008 528.851 343.139 528.72 343.4 528.72H344.66C344.922 528.72 345.052 528.851 345.052 529.112V530.204H345.164C345.631 529.215 346.583 528.72 348.02 528.72H349.588C350.858 528.72 351.847 529.084 352.556 529.812C353.266 530.54 353.62 531.557 353.62 532.864V542.608C353.62 542.869 353.49 543 353.228 543H351.968C351.707 543 351.576 542.869 351.576 542.608V532.948C351.576 531.324 350.792 530.512 349.224 530.512H347.656C346.816 530.512 346.172 530.736 345.724 531.184C345.276 531.632 345.052 532.267 345.052 533.088V542.608C345.052 542.869 344.922 543 344.66 543ZM362.18 543H357.196C356.935 543 356.804 542.869 356.804 542.608V541.628C356.804 541.385 356.935 541.264 357.196 541.264H361.9C363.356 541.264 364.084 540.723 364.084 539.64V539.108C364.084 538.119 363.608 537.437 362.656 537.064L359.352 535.664C358.4 535.272 357.719 534.815 357.308 534.292C356.898 533.751 356.692 533.041 356.692 532.164C356.692 529.868 357.952 528.72 360.472 528.72H365.064C365.326 528.72 365.456 528.851 365.456 529.112V530.092C365.456 530.335 365.326 530.456 365.064 530.456H360.836C360.164 530.456 359.651 530.596 359.296 530.876C358.96 531.156 358.792 531.483 358.792 531.856V532.332C358.792 533.116 359.324 533.713 360.388 534.124L363.692 535.608C364.663 535.981 365.316 536.476 365.652 537.092C366.007 537.708 366.184 538.557 366.184 539.64C366.184 541.88 364.85 543 362.18 543ZM369.982 530.512H368.442C368.18 530.512 368.05 530.391 368.05 530.148V529.112C368.05 528.851 368.18 528.72 368.442 528.72H369.982C370.168 528.72 370.262 528.636 370.262 528.468V526.06C370.262 525.799 370.392 525.668 370.654 525.668H371.914C372.156 525.668 372.278 525.799 372.278 526.06V528.468C372.278 528.636 372.38 528.72 372.586 528.72H375.554C375.834 528.72 375.974 528.851 375.974 529.112V530.148C375.974 530.391 375.834 530.512 375.554 530.512H372.586C372.38 530.512 372.278 530.596 372.278 530.764V538.828C372.278 540.415 373.099 541.208 374.742 541.208H375.834C376.114 541.208 376.254 541.339 376.254 541.6V542.636C376.254 542.879 376.114 543 375.834 543H374.49C373.202 543 372.175 542.645 371.41 541.936C370.644 541.208 370.262 540.2 370.262 538.912V530.764C370.262 530.596 370.168 530.512 369.982 530.512ZM380.863 543H379.603C379.342 543 379.211 542.869 379.211 542.608V529.112C379.211 528.851 379.342 528.72 379.603 528.72H380.863C381.125 528.72 381.255 528.851 381.255 529.112V530.232H381.367C381.554 529.821 381.909 529.467 382.431 529.168C382.954 528.869 383.57 528.72 384.279 528.72H385.371C385.614 528.72 385.735 528.851 385.735 529.112V530.148C385.735 530.279 385.707 530.381 385.651 530.456C385.595 530.512 385.502 530.531 385.371 530.512H383.859C383.019 530.512 382.375 530.764 381.927 531.268C381.479 531.772 381.255 532.463 381.255 533.34V542.608C381.255 542.869 381.125 543 380.863 543ZM393.722 543H392.154C390.885 543 389.895 542.636 389.186 541.908C388.477 541.18 388.122 540.163 388.122 538.856V529.112C388.122 528.851 388.253 528.72 388.514 528.72H389.774C390.035 528.72 390.166 528.851 390.166 529.112V538.772C390.166 540.396 390.941 541.208 392.49 541.208H394.086C394.926 541.208 395.57 540.984 396.018 540.536C396.466 540.088 396.69 539.453 396.69 538.632V529.112C396.69 528.851 396.821 528.72 397.082 528.72H398.342C398.603 528.72 398.734 528.851 398.734 529.112V542.608C398.734 542.869 398.603 543 398.342 543H397.082C396.821 543 396.69 542.869 396.69 542.608V541.516H396.578C396.111 542.505 395.159 543 393.722 543ZM410.514 530.512H406.678C405.129 530.512 404.354 531.324 404.354 532.948V538.772C404.354 540.396 405.129 541.208 406.678 541.208H410.514C410.776 541.208 410.906 541.339 410.906 541.6V542.636C410.906 542.879 410.776 543 410.514 543H408.666L407.518 544.204V544.316C408.956 544.316 409.674 544.913 409.674 546.108V546.5C409.674 547.676 408.872 548.264 407.266 548.264H406.426C406.184 548.264 406.062 548.143 406.062 547.9V547.508C406.062 547.359 406.081 547.256 406.118 547.2C406.174 547.163 406.277 547.144 406.426 547.144H407.07C407.612 547.144 407.985 547.079 408.19 546.948C408.396 546.836 408.498 546.631 408.498 546.332V546.276C408.498 545.94 408.396 545.707 408.19 545.576C407.985 545.464 407.612 545.408 407.07 545.408H406.622C406.286 545.408 406.062 545.268 405.95 544.988C405.857 544.708 405.922 544.437 406.146 544.176L407.182 543H406.454C405.166 543 404.149 542.636 403.402 541.908C402.674 541.18 402.31 540.163 402.31 538.856V532.864C402.31 531.557 402.674 530.54 403.402 529.812C404.149 529.084 405.166 528.72 406.454 528.72H410.514C410.776 528.72 410.906 528.851 410.906 529.112V530.148C410.906 530.391 410.776 530.512 410.514 530.512ZM416.35 524.716V523.652C416.35 523.447 416.443 523.344 416.63 523.344H417.218C417.386 523.344 417.47 523.447 417.47 523.652V524.38C417.47 524.903 417.516 525.257 417.61 525.444C417.703 525.631 417.862 525.724 418.086 525.724C418.328 525.724 418.506 525.649 418.618 525.5C418.748 525.351 418.926 525.024 419.15 524.52C419.392 524.016 419.626 523.68 419.85 523.512C420.074 523.344 420.447 523.26 420.97 523.26C422.015 523.26 422.538 523.979 422.538 525.416V526.536C422.538 526.741 422.454 526.844 422.286 526.844H421.698C421.53 526.844 421.446 526.741 421.446 526.536V525.78C421.446 525.239 421.399 524.875 421.306 524.688C421.212 524.501 421.063 524.408 420.858 524.408C420.671 524.408 420.54 524.417 420.466 524.436C420.41 524.455 420.335 524.52 420.242 524.632C420.167 524.744 420.111 524.847 420.074 524.94C420.036 525.015 419.924 525.267 419.738 525.696C419.551 526.125 419.336 526.433 419.094 526.62C418.851 526.788 418.468 526.872 417.946 526.872C416.882 526.872 416.35 526.153 416.35 524.716ZM419.094 543H417.638C416.35 543 415.332 542.636 414.586 541.908C413.858 541.18 413.494 540.163 413.494 538.856V532.864C413.494 531.557 413.858 530.54 414.586 529.812C415.332 529.084 416.35 528.72 417.638 528.72H423.714C423.975 528.72 424.106 528.851 424.106 529.112V542.608C424.106 542.869 423.975 543 423.714 543H422.454C422.192 543 422.062 542.869 422.062 542.608V541.516H421.95C421.483 542.505 420.531 543 419.094 543ZM422.062 538.632V530.764C422.062 530.596 421.968 530.512 421.782 530.512H417.862C416.312 530.512 415.538 531.324 415.538 532.948V538.772C415.538 540.396 416.312 541.208 417.862 541.208H419.458C420.298 541.208 420.942 540.984 421.39 540.536C421.838 540.088 422.062 539.453 422.062 538.632ZM434.265 543H431.857C430.569 543 429.551 542.636 428.805 541.908C428.077 541.18 427.713 540.163 427.713 538.856V532.864C427.713 531.557 428.077 530.54 428.805 529.812C429.551 529.084 430.569 528.72 431.857 528.72H434.265C435.553 528.72 436.561 529.084 437.289 529.812C438.035 530.54 438.409 531.557 438.409 532.864V538.856C438.409 540.163 438.035 541.18 437.289 541.908C436.561 542.636 435.553 543 434.265 543ZM432.081 541.208H434.041C435.609 541.208 436.393 540.405 436.393 538.8V532.92C436.393 531.315 435.609 530.512 434.041 530.512H432.081C430.513 530.512 429.729 531.315 429.729 532.92V538.8C429.729 540.405 430.513 541.208 432.081 541.208ZM443.869 539.22V542.608C443.869 542.869 443.747 543 443.505 543H442.077C441.834 543 441.713 542.869 441.713 542.608V539.22C441.713 538.977 441.834 538.856 442.077 538.856H443.505C443.747 538.856 443.869 538.977 443.869 539.22ZM449.31 539.22V542.608C449.31 542.869 449.189 543 448.946 543H447.518C447.275 543 447.154 542.869 447.154 542.608V539.22C447.154 538.977 447.275 538.856 447.518 538.856H448.946C449.189 538.856 449.31 538.977 449.31 539.22ZM454.751 539.22V542.608C454.751 542.869 454.63 543 454.387 543H452.959C452.717 543 452.595 542.869 452.595 542.608V539.22C452.595 538.977 452.717 538.856 452.959 538.856H454.387C454.63 538.856 454.751 538.977 454.751 539.22Z" fill="#F2F2F2"/>
<rect x="26" y="68" width="588.93" height="275" fill="#0D0D0D"/>
<path d="M297.296 791.71H299.816C300.256 791.71 300.476 791.91 300.476 792.31V806.11C300.476 807.67 300.036 808.88 299.156 809.74C298.296 810.58 297.086 811 295.526 811H292.226C290.646 811 289.426 810.58 288.566 809.74C287.706 808.9 287.276 807.69 287.276 806.11V792.34C287.276 791.92 287.486 791.71 287.906 791.71H290.456C290.876 791.71 291.086 791.92 291.086 792.34V805.93C291.086 806.57 291.216 807.03 291.476 807.31C291.756 807.57 292.206 807.7 292.826 807.7H294.896C295.536 807.7 295.986 807.57 296.246 807.31C296.526 807.03 296.666 806.57 296.666 805.93V792.34C296.666 791.92 296.876 791.71 297.296 791.71ZM306.403 811H303.433C303.233 811 303.093 810.94 303.013 810.82C302.933 810.68 302.933 810.52 303.013 810.34L307.663 801.13L303.163 792.37C303.083 792.21 303.083 792.06 303.163 791.92C303.243 791.78 303.383 791.71 303.583 791.71H306.463C306.963 791.71 307.293 791.92 307.453 792.34L310.303 798.79H310.423L313.243 792.34C313.443 791.92 313.763 791.71 314.203 791.71H317.143C317.343 791.71 317.483 791.79 317.563 791.95C317.663 792.09 317.673 792.24 317.593 792.4L313.033 801.13L317.683 810.31C317.783 810.51 317.793 810.68 317.713 810.82C317.633 810.94 317.483 811 317.263 811H314.263C313.843 811 313.553 810.8 313.393 810.4L310.423 803.92H310.303L307.303 810.4C307.123 810.8 306.823 811 306.403 811ZM322.184 811H319.874C319.394 811 319.234 810.79 319.394 810.37C320.034 808.73 321.174 805.73 322.814 801.37C324.454 797.01 325.594 794 326.234 792.34C326.414 791.92 326.684 791.71 327.044 791.71H329.354C329.834 791.71 329.994 791.92 329.834 792.34L322.994 810.37C322.834 810.79 322.564 811 322.184 811ZM342.559 791.71H345.079C345.519 791.71 345.739 791.91 345.739 792.31V806.11C345.739 807.67 345.299 808.88 344.419 809.74C343.559 810.58 342.349 811 340.789 811H337.489C335.909 811 334.689 810.58 333.829 809.74C332.969 808.9 332.539 807.69 332.539 806.11V792.34C332.539 791.92 332.749 791.71 333.169 791.71H335.719C336.139 791.71 336.349 791.92 336.349 792.34V805.93C336.349 806.57 336.479 807.03 336.739 807.31C337.019 807.57 337.469 807.7 338.089 807.7H340.159C340.799 807.7 341.249 807.57 341.509 807.31C341.789 807.03 341.929 806.57 341.929 805.93V792.34C341.929 791.92 342.139 791.71 342.559 791.71ZM353.436 792.34V810.37C353.436 810.79 353.226 811 352.806 811H350.256C349.836 811 349.626 810.79 349.626 810.37V792.34C349.626 791.92 349.836 791.71 350.256 791.71H352.806C353.226 791.71 353.436 791.92 353.436 792.34Z" fill="white"/>
</svg>
